<mxfile host="app.diagrams.net" modified="2022-10-07T02:31:16.108Z" agent="5.0 (Windows NT 10.0; Win64; x64) AppleWebKit/537.36 (KHTML, like Gecko) Chrome/106.0.0.0 Safari/537.36" etag="MjcIGdU6AROmXXl7wxoi" version="20.4.0" type="github">
  <diagram id="C5RBs43oDa-KdzZeNtuy" name="Page-1">
    <mxGraphModel dx="4876" dy="3347" grid="1" gridSize="10" guides="1" tooltips="1" connect="1" arrows="1" fold="1" page="1" pageScale="1" pageWidth="3300" pageHeight="2339" math="0" shadow="0">
      <root>
        <mxCell id="WIyWlLk6GJQsqaUBKTNV-0" />
        <mxCell id="WIyWlLk6GJQsqaUBKTNV-1" parent="WIyWlLk6GJQsqaUBKTNV-0" />
        <mxCell id="kBdst28I5aQ1oTpQg8cU-42" style="edgeStyle=orthogonalEdgeStyle;rounded=0;orthogonalLoop=1;jettySize=auto;html=1;" edge="1" parent="WIyWlLk6GJQsqaUBKTNV-1" source="JkuJIoE7SBukqdG8tUZ_-12">
          <mxGeometry relative="1" as="geometry">
            <mxPoint x="630" y="151" as="targetPoint" />
          </mxGeometry>
        </mxCell>
        <mxCell id="JkuJIoE7SBukqdG8tUZ_-12" value="Carrinho" style="swimlane;fontStyle=0;align=center;verticalAlign=top;childLayout=stackLayout;horizontal=1;startSize=26;horizontalStack=0;resizeParent=1;resizeLast=0;collapsible=1;marginBottom=0;rounded=0;shadow=0;strokeWidth=1;" parent="WIyWlLk6GJQsqaUBKTNV-1" vertex="1">
          <mxGeometry x="742.5" width="281" height="302" as="geometry">
            <mxRectangle x="550" y="140" width="160" height="26" as="alternateBounds" />
          </mxGeometry>
        </mxCell>
        <mxCell id="JkuJIoE7SBukqdG8tUZ_-14" value="+ Produtos[] produto[]" style="text;align=left;verticalAlign=top;spacingLeft=4;spacingRight=4;overflow=hidden;rotatable=0;points=[[0,0.5],[1,0.5]];portConstraint=eastwest;" parent="JkuJIoE7SBukqdG8tUZ_-12" vertex="1">
          <mxGeometry y="26" width="281" height="26" as="geometry" />
        </mxCell>
        <mxCell id="kBdst28I5aQ1oTpQg8cU-58" value="+Cupom[] cupom[]" style="text;align=left;verticalAlign=top;spacingLeft=4;spacingRight=4;overflow=hidden;rotatable=0;points=[[0,0.5],[1,0.5]];portConstraint=eastwest;" vertex="1" parent="JkuJIoE7SBukqdG8tUZ_-12">
          <mxGeometry y="52" width="281" height="26" as="geometry" />
        </mxCell>
        <mxCell id="JkuJIoE7SBukqdG8tUZ_-16" value="" style="line;html=1;strokeWidth=1;align=left;verticalAlign=middle;spacingTop=-1;spacingLeft=3;spacingRight=3;rotatable=0;labelPosition=right;points=[];portConstraint=eastwest;" parent="JkuJIoE7SBukqdG8tUZ_-12" vertex="1">
          <mxGeometry y="78" width="281" height="26" as="geometry" />
        </mxCell>
        <mxCell id="JkuJIoE7SBukqdG8tUZ_-17" value="+ adicionar(): int" style="text;align=left;verticalAlign=top;spacingLeft=4;spacingRight=4;overflow=hidden;rotatable=0;points=[[0,0.5],[1,0.5]];portConstraint=eastwest;" parent="JkuJIoE7SBukqdG8tUZ_-12" vertex="1">
          <mxGeometry y="104" width="281" height="26" as="geometry" />
        </mxCell>
        <mxCell id="kBdst28I5aQ1oTpQg8cU-73" value="+ remover(): int" style="text;align=left;verticalAlign=top;spacingLeft=4;spacingRight=4;overflow=hidden;rotatable=0;points=[[0,0.5],[1,0.5]];portConstraint=eastwest;" vertex="1" parent="JkuJIoE7SBukqdG8tUZ_-12">
          <mxGeometry y="130" width="281" height="26" as="geometry" />
        </mxCell>
        <mxCell id="JkuJIoE7SBukqdG8tUZ_-19" value="+ imprimirProdutos(): void" style="text;align=left;verticalAlign=top;spacingLeft=4;spacingRight=4;overflow=hidden;rotatable=0;points=[[0,0.5],[1,0.5]];portConstraint=eastwest;" parent="JkuJIoE7SBukqdG8tUZ_-12" vertex="1">
          <mxGeometry y="156" width="281" height="26" as="geometry" />
        </mxCell>
        <mxCell id="kBdst28I5aQ1oTpQg8cU-48" style="edgeStyle=orthogonalEdgeStyle;rounded=0;orthogonalLoop=1;jettySize=auto;html=1;" edge="1" parent="WIyWlLk6GJQsqaUBKTNV-1" source="JkuJIoE7SBukqdG8tUZ_-20" target="JkuJIoE7SBukqdG8tUZ_-12">
          <mxGeometry relative="1" as="geometry" />
        </mxCell>
        <mxCell id="JkuJIoE7SBukqdG8tUZ_-20" value="Produto" style="swimlane;fontStyle=2;align=center;verticalAlign=top;childLayout=stackLayout;horizontal=1;startSize=26;horizontalStack=0;resizeParent=1;resizeLast=0;collapsible=1;marginBottom=0;rounded=0;shadow=0;strokeWidth=1;" parent="WIyWlLk6GJQsqaUBKTNV-1" vertex="1">
          <mxGeometry x="766.25" y="-420" width="233.5" height="268" as="geometry">
            <mxRectangle x="230" y="140" width="160" height="26" as="alternateBounds" />
          </mxGeometry>
        </mxCell>
        <mxCell id="JkuJIoE7SBukqdG8tUZ_-21" value="+ nome; String" style="text;align=left;verticalAlign=top;spacingLeft=4;spacingRight=4;overflow=hidden;rotatable=0;points=[[0,0.5],[1,0.5]];portConstraint=eastwest;" parent="JkuJIoE7SBukqdG8tUZ_-20" vertex="1">
          <mxGeometry y="26" width="233.5" height="26" as="geometry" />
        </mxCell>
        <mxCell id="JkuJIoE7SBukqdG8tUZ_-22" value="+ ID: long;" style="text;align=left;verticalAlign=top;spacingLeft=4;spacingRight=4;overflow=hidden;rotatable=0;points=[[0,0.5],[1,0.5]];portConstraint=eastwest;rounded=0;shadow=0;html=0;" parent="JkuJIoE7SBukqdG8tUZ_-20" vertex="1">
          <mxGeometry y="52" width="233.5" height="26" as="geometry" />
        </mxCell>
        <mxCell id="JkuJIoE7SBukqdG8tUZ_-23" value="+ quantidade: int;" style="text;align=left;verticalAlign=top;spacingLeft=4;spacingRight=4;overflow=hidden;rotatable=0;points=[[0,0.5],[1,0.5]];portConstraint=eastwest;rounded=0;shadow=0;html=0;" parent="JkuJIoE7SBukqdG8tUZ_-20" vertex="1">
          <mxGeometry y="78" width="233.5" height="26" as="geometry" />
        </mxCell>
        <mxCell id="JkuJIoE7SBukqdG8tUZ_-24" value="+ tipo: int ()" style="text;align=left;verticalAlign=top;spacingLeft=4;spacingRight=4;overflow=hidden;rotatable=0;points=[[0,0.5],[1,0.5]];portConstraint=eastwest;rounded=0;shadow=0;html=0;" parent="JkuJIoE7SBukqdG8tUZ_-20" vertex="1">
          <mxGeometry y="104" width="233.5" height="26" as="geometry" />
        </mxCell>
        <mxCell id="JkuJIoE7SBukqdG8tUZ_-25" value="+ valor: double" style="text;align=left;verticalAlign=top;spacingLeft=4;spacingRight=4;overflow=hidden;rotatable=0;points=[[0,0.5],[1,0.5]];portConstraint=eastwest;rounded=0;shadow=0;html=0;" parent="JkuJIoE7SBukqdG8tUZ_-20" vertex="1">
          <mxGeometry y="130" width="233.5" height="26" as="geometry" />
        </mxCell>
        <mxCell id="JkuJIoE7SBukqdG8tUZ_-2" value="- descricao: String" style="text;align=left;verticalAlign=top;spacingLeft=4;spacingRight=4;overflow=hidden;rotatable=0;points=[[0,0.5],[1,0.5]];portConstraint=eastwest;" parent="JkuJIoE7SBukqdG8tUZ_-20" vertex="1">
          <mxGeometry y="156" width="233.5" height="26" as="geometry" />
        </mxCell>
        <mxCell id="JkuJIoE7SBukqdG8tUZ_-26" value="" style="line;html=1;strokeWidth=1;align=left;verticalAlign=middle;spacingTop=-1;spacingLeft=3;spacingRight=3;rotatable=0;labelPosition=right;points=[];portConstraint=eastwest;" parent="JkuJIoE7SBukqdG8tUZ_-20" vertex="1">
          <mxGeometry y="182" width="233.5" height="34" as="geometry" />
        </mxCell>
        <mxCell id="nwzno8uzd7vZPeXobcwK-57" value="+ gettes and setters ; void" style="text;align=left;verticalAlign=top;spacingLeft=4;spacingRight=4;overflow=hidden;rotatable=0;points=[[0,0.5],[1,0.5]];portConstraint=eastwest;" parent="JkuJIoE7SBukqdG8tUZ_-20" vertex="1">
          <mxGeometry y="216" width="233.5" height="26" as="geometry" />
        </mxCell>
        <mxCell id="nwzno8uzd7vZPeXobcwK-58" value="+ toString();" style="text;align=left;verticalAlign=top;spacingLeft=4;spacingRight=4;overflow=hidden;rotatable=0;points=[[0,0.5],[1,0.5]];portConstraint=eastwest;" parent="JkuJIoE7SBukqdG8tUZ_-20" vertex="1">
          <mxGeometry y="242" width="233.5" height="26" as="geometry" />
        </mxCell>
        <mxCell id="JkuJIoE7SBukqdG8tUZ_-28" value="Cliente" style="swimlane;fontStyle=0;align=center;verticalAlign=top;childLayout=stackLayout;horizontal=1;startSize=26;horizontalStack=0;resizeParent=1;resizeLast=0;collapsible=1;marginBottom=0;rounded=0;shadow=0;strokeWidth=1;" parent="WIyWlLk6GJQsqaUBKTNV-1" vertex="1">
          <mxGeometry x="280" y="-279" width="350" height="632" as="geometry">
            <mxRectangle x="550" y="140" width="160" height="26" as="alternateBounds" />
          </mxGeometry>
        </mxCell>
        <mxCell id="iqWXhcP6Gmm81lYTE9qX-86" value="- login: Login" style="text;align=left;verticalAlign=top;spacingLeft=4;spacingRight=4;overflow=hidden;rotatable=0;points=[[0,0.5],[1,0.5]];portConstraint=eastwest;rounded=0;shadow=0;html=0;" parent="JkuJIoE7SBukqdG8tUZ_-28" vertex="1">
          <mxGeometry y="26" width="350" height="26" as="geometry" />
        </mxCell>
        <mxCell id="JkuJIoE7SBukqdG8tUZ_-35" value="+ carrinho: Carrinho" style="text;align=left;verticalAlign=top;spacingLeft=4;spacingRight=4;overflow=hidden;rotatable=0;points=[[0,0.5],[1,0.5]];portConstraint=eastwest;" parent="JkuJIoE7SBukqdG8tUZ_-28" vertex="1">
          <mxGeometry y="52" width="350" height="26" as="geometry" />
        </mxCell>
        <mxCell id="kBdst28I5aQ1oTpQg8cU-45" value="- email: String" style="text;align=left;verticalAlign=top;spacingLeft=4;spacingRight=4;overflow=hidden;rotatable=0;points=[[0,0.5],[1,0.5]];portConstraint=eastwest;rounded=0;shadow=0;html=0;" vertex="1" parent="JkuJIoE7SBukqdG8tUZ_-28">
          <mxGeometry y="78" width="350" height="26" as="geometry" />
        </mxCell>
        <mxCell id="iqWXhcP6Gmm81lYTE9qX-76" value="- senha: String" style="text;align=left;verticalAlign=top;spacingLeft=4;spacingRight=4;overflow=hidden;rotatable=0;points=[[0,0.5],[1,0.5]];portConstraint=eastwest;" parent="JkuJIoE7SBukqdG8tUZ_-28" vertex="1">
          <mxGeometry y="104" width="350" height="26" as="geometry" />
        </mxCell>
        <mxCell id="kBdst28I5aQ1oTpQg8cU-46" value="- Cadastro() cadastro" style="text;align=left;verticalAlign=top;spacingLeft=4;spacingRight=4;overflow=hidden;rotatable=0;points=[[0,0.5],[1,0.5]];portConstraint=eastwest;" vertex="1" parent="JkuJIoE7SBukqdG8tUZ_-28">
          <mxGeometry y="130" width="350" height="26" as="geometry" />
        </mxCell>
        <mxCell id="JkuJIoE7SBukqdG8tUZ_-38" value="" style="line;html=1;strokeWidth=1;align=left;verticalAlign=middle;spacingTop=-1;spacingLeft=3;spacingRight=3;rotatable=0;labelPosition=right;points=[];portConstraint=eastwest;" parent="JkuJIoE7SBukqdG8tUZ_-28" vertex="1">
          <mxGeometry y="156" width="350" height="36" as="geometry" />
        </mxCell>
        <mxCell id="JkuJIoE7SBukqdG8tUZ_-42" value="+ acessarCarrinho(): boolean" style="text;align=left;verticalAlign=top;spacingLeft=4;spacingRight=4;overflow=hidden;rotatable=0;points=[[0,0.5],[1,0.5]];portConstraint=eastwest;" parent="JkuJIoE7SBukqdG8tUZ_-28" vertex="1">
          <mxGeometry y="192" width="350" height="26" as="geometry" />
        </mxCell>
        <mxCell id="JkuJIoE7SBukqdG8tUZ_-43" value="+ cadastrarVenda(): void" style="text;align=left;verticalAlign=top;spacingLeft=4;spacingRight=4;overflow=hidden;rotatable=0;points=[[0,0.5],[1,0.5]];portConstraint=eastwest;" parent="JkuJIoE7SBukqdG8tUZ_-28" vertex="1">
          <mxGeometry y="218" width="350" height="26" as="geometry" />
        </mxCell>
        <mxCell id="iqWXhcP6Gmm81lYTE9qX-31" value="+ login(String email, String senha); void" style="text;align=left;verticalAlign=top;spacingLeft=4;spacingRight=4;overflow=hidden;rotatable=0;points=[[0,0.5],[1,0.5]];portConstraint=eastwest;" parent="JkuJIoE7SBukqdG8tUZ_-28" vertex="1">
          <mxGeometry y="244" width="350" height="26" as="geometry" />
        </mxCell>
        <mxCell id="iqWXhcP6Gmm81lYTE9qX-30" value="&amp;lt;implements&amp;gt;" style="edgeStyle=orthogonalEdgeStyle;rounded=0;orthogonalLoop=1;jettySize=auto;html=1;entryX=0.5;entryY=1;entryDx=0;entryDy=0;dashed=1;" parent="WIyWlLk6GJQsqaUBKTNV-1" source="EZmZFvH6jRL-wL6Aayow-8" target="JkuJIoE7SBukqdG8tUZ_-28" edge="1">
          <mxGeometry x="-0.5176" relative="1" as="geometry">
            <Array as="points">
              <mxPoint x="455" y="560" />
            </Array>
            <mxPoint as="offset" />
          </mxGeometry>
        </mxCell>
        <mxCell id="EZmZFvH6jRL-wL6Aayow-8" value="Vender" style="swimlane;fontStyle=2;align=center;verticalAlign=top;childLayout=stackLayout;horizontal=1;startSize=26;horizontalStack=0;resizeParent=1;resizeLast=0;collapsible=1;marginBottom=0;rounded=0;shadow=0;strokeWidth=1;" parent="WIyWlLk6GJQsqaUBKTNV-1" vertex="1">
          <mxGeometry x="-20" y="560" width="237" height="300" as="geometry">
            <mxRectangle x="230" y="140" width="160" height="26" as="alternateBounds" />
          </mxGeometry>
        </mxCell>
        <mxCell id="EZmZFvH6jRL-wL6Aayow-14" value="" style="line;html=1;strokeWidth=1;align=left;verticalAlign=middle;spacingTop=-1;spacingLeft=3;spacingRight=3;rotatable=0;labelPosition=right;points=[];portConstraint=eastwest;" parent="EZmZFvH6jRL-wL6Aayow-8" vertex="1">
          <mxGeometry y="26" width="237" height="34" as="geometry" />
        </mxCell>
        <mxCell id="EZmZFvH6jRL-wL6Aayow-15" value="+vender (int quantidade, double valor)" style="text;align=left;verticalAlign=top;spacingLeft=4;spacingRight=4;overflow=hidden;rotatable=0;points=[[0,0.5],[1,0.5]];portConstraint=eastwest;" parent="EZmZFvH6jRL-wL6Aayow-8" vertex="1">
          <mxGeometry y="60" width="237" height="26" as="geometry" />
        </mxCell>
        <mxCell id="iqWXhcP6Gmm81lYTE9qX-28" value="&amp;lt;iimplements&amp;gt;" style="edgeStyle=orthogonalEdgeStyle;rounded=0;orthogonalLoop=1;jettySize=auto;html=1;entryX=0.5;entryY=1;entryDx=0;entryDy=0;dashed=1;" parent="WIyWlLk6GJQsqaUBKTNV-1" source="iqWXhcP6Gmm81lYTE9qX-25" target="JkuJIoE7SBukqdG8tUZ_-28" edge="1">
          <mxGeometry relative="1" as="geometry">
            <Array as="points">
              <mxPoint x="455" y="480" />
              <mxPoint x="455" y="480" />
            </Array>
          </mxGeometry>
        </mxCell>
        <mxCell id="iqWXhcP6Gmm81lYTE9qX-25" value="Comprar" style="swimlane;fontStyle=2;align=center;verticalAlign=top;childLayout=stackLayout;horizontal=1;startSize=26;horizontalStack=0;resizeParent=1;resizeLast=0;collapsible=1;marginBottom=0;rounded=0;shadow=0;strokeWidth=1;" parent="WIyWlLk6GJQsqaUBKTNV-1" vertex="1">
          <mxGeometry x="350" y="660" width="220" height="300" as="geometry">
            <mxRectangle x="230" y="140" width="160" height="26" as="alternateBounds" />
          </mxGeometry>
        </mxCell>
        <mxCell id="iqWXhcP6Gmm81lYTE9qX-26" value="" style="line;html=1;strokeWidth=1;align=left;verticalAlign=middle;spacingTop=-1;spacingLeft=3;spacingRight=3;rotatable=0;labelPosition=right;points=[];portConstraint=eastwest;" parent="iqWXhcP6Gmm81lYTE9qX-25" vertex="1">
          <mxGeometry y="26" width="220" height="34" as="geometry" />
        </mxCell>
        <mxCell id="iqWXhcP6Gmm81lYTE9qX-27" value="+ comprar(int quantidade, double valor)" style="text;align=left;verticalAlign=top;spacingLeft=4;spacingRight=4;overflow=hidden;rotatable=0;points=[[0,0.5],[1,0.5]];portConstraint=eastwest;" parent="iqWXhcP6Gmm81lYTE9qX-25" vertex="1">
          <mxGeometry y="60" width="220" height="26" as="geometry" />
        </mxCell>
        <mxCell id="kBdst28I5aQ1oTpQg8cU-71" value="&amp;lt;extends&amp;gt;" style="edgeStyle=orthogonalEdgeStyle;rounded=0;orthogonalLoop=1;jettySize=auto;html=1;entryX=0;entryY=0.75;entryDx=0;entryDy=0;dashed=1;" edge="1" parent="WIyWlLk6GJQsqaUBKTNV-1" source="iqWXhcP6Gmm81lYTE9qX-92" target="JkuJIoE7SBukqdG8tUZ_-28">
          <mxGeometry relative="1" as="geometry">
            <Array as="points">
              <mxPoint x="220" y="195" />
              <mxPoint x="220" y="195" />
            </Array>
          </mxGeometry>
        </mxCell>
        <mxCell id="iqWXhcP6Gmm81lYTE9qX-92" value="Cadastro" style="swimlane;fontStyle=0;align=center;verticalAlign=top;childLayout=stackLayout;horizontal=1;startSize=26;horizontalStack=0;resizeParent=1;resizeLast=0;collapsible=1;marginBottom=0;rounded=0;shadow=0;strokeWidth=1;" parent="WIyWlLk6GJQsqaUBKTNV-1" vertex="1">
          <mxGeometry x="-160" y="-110" width="340" height="610" as="geometry">
            <mxRectangle x="550" y="140" width="160" height="26" as="alternateBounds" />
          </mxGeometry>
        </mxCell>
        <mxCell id="iqWXhcP6Gmm81lYTE9qX-93" value="+ nome: String" style="text;align=left;verticalAlign=top;spacingLeft=4;spacingRight=4;overflow=hidden;rotatable=0;points=[[0,0.5],[1,0.5]];portConstraint=eastwest;rounded=0;shadow=0;html=0;" parent="iqWXhcP6Gmm81lYTE9qX-92" vertex="1">
          <mxGeometry y="26" width="340" height="26" as="geometry" />
        </mxCell>
        <mxCell id="iqWXhcP6Gmm81lYTE9qX-95" value="+ endereco: String" style="text;align=left;verticalAlign=top;spacingLeft=4;spacingRight=4;overflow=hidden;rotatable=0;points=[[0,0.5],[1,0.5]];portConstraint=eastwest;" parent="iqWXhcP6Gmm81lYTE9qX-92" vertex="1">
          <mxGeometry y="52" width="340" height="26" as="geometry" />
        </mxCell>
        <mxCell id="iqWXhcP6Gmm81lYTE9qX-96" value="+ cpf: String" style="text;align=left;verticalAlign=top;spacingLeft=4;spacingRight=4;overflow=hidden;rotatable=0;points=[[0,0.5],[1,0.5]];portConstraint=eastwest;" parent="iqWXhcP6Gmm81lYTE9qX-92" vertex="1">
          <mxGeometry y="78" width="340" height="26" as="geometry" />
        </mxCell>
        <mxCell id="iqWXhcP6Gmm81lYTE9qX-97" value="+ cidade: String" style="text;align=left;verticalAlign=top;spacingLeft=4;spacingRight=4;overflow=hidden;rotatable=0;points=[[0,0.5],[1,0.5]];portConstraint=eastwest;" parent="iqWXhcP6Gmm81lYTE9qX-92" vertex="1">
          <mxGeometry y="104" width="340" height="26" as="geometry" />
        </mxCell>
        <mxCell id="iqWXhcP6Gmm81lYTE9qX-98" value="+ estado: String" style="text;align=left;verticalAlign=top;spacingLeft=4;spacingRight=4;overflow=hidden;rotatable=0;points=[[0,0.5],[1,0.5]];portConstraint=eastwest;" parent="iqWXhcP6Gmm81lYTE9qX-92" vertex="1">
          <mxGeometry y="130" width="340" height="26" as="geometry" />
        </mxCell>
        <mxCell id="iqWXhcP6Gmm81lYTE9qX-101" value="+ formaDeRecebimento:  String (chave pix)" style="text;align=left;verticalAlign=top;spacingLeft=4;spacingRight=4;overflow=hidden;rotatable=0;points=[[0,0.5],[1,0.5]];portConstraint=eastwest;" parent="iqWXhcP6Gmm81lYTE9qX-92" vertex="1">
          <mxGeometry y="156" width="340" height="26" as="geometry" />
        </mxCell>
        <mxCell id="iqWXhcP6Gmm81lYTE9qX-102" value="+ telefone: String" style="text;align=left;verticalAlign=top;spacingLeft=4;spacingRight=4;overflow=hidden;rotatable=0;points=[[0,0.5],[1,0.5]];portConstraint=eastwest;" parent="iqWXhcP6Gmm81lYTE9qX-92" vertex="1">
          <mxGeometry y="182" width="340" height="26" as="geometry" />
        </mxCell>
        <mxCell id="iqWXhcP6Gmm81lYTE9qX-104" value="" style="line;html=1;strokeWidth=1;align=left;verticalAlign=middle;spacingTop=-1;spacingLeft=3;spacingRight=3;rotatable=0;labelPosition=right;points=[];portConstraint=eastwest;" parent="iqWXhcP6Gmm81lYTE9qX-92" vertex="1">
          <mxGeometry y="208" width="340" height="36" as="geometry" />
        </mxCell>
        <mxCell id="iqWXhcP6Gmm81lYTE9qX-106" value="+ mostrarCadastro(); void" style="text;align=left;verticalAlign=top;spacingLeft=4;spacingRight=4;overflow=hidden;rotatable=0;points=[[0,0.5],[1,0.5]];portConstraint=eastwest;" parent="iqWXhcP6Gmm81lYTE9qX-92" vertex="1">
          <mxGeometry y="244" width="340" height="26" as="geometry" />
        </mxCell>
        <mxCell id="kBdst28I5aQ1oTpQg8cU-0" value="-getNome() void" style="text;align=left;verticalAlign=top;spacingLeft=4;spacingRight=4;overflow=hidden;rotatable=0;points=[[0,0.5],[1,0.5]];portConstraint=eastwest;" vertex="1" parent="iqWXhcP6Gmm81lYTE9qX-92">
          <mxGeometry y="270" width="340" height="26" as="geometry" />
        </mxCell>
        <mxCell id="kBdst28I5aQ1oTpQg8cU-1" value="+setNome() void" style="text;align=left;verticalAlign=top;spacingLeft=4;spacingRight=4;overflow=hidden;rotatable=0;points=[[0,0.5],[1,0.5]];portConstraint=eastwest;" vertex="1" parent="iqWXhcP6Gmm81lYTE9qX-92">
          <mxGeometry y="296" width="340" height="26" as="geometry" />
        </mxCell>
        <mxCell id="kBdst28I5aQ1oTpQg8cU-2" value="+getCpf() void" style="text;align=left;verticalAlign=top;spacingLeft=4;spacingRight=4;overflow=hidden;rotatable=0;points=[[0,0.5],[1,0.5]];portConstraint=eastwest;" vertex="1" parent="iqWXhcP6Gmm81lYTE9qX-92">
          <mxGeometry y="322" width="340" height="26" as="geometry" />
        </mxCell>
        <mxCell id="kBdst28I5aQ1oTpQg8cU-3" value="+setCpf() void" style="text;align=left;verticalAlign=top;spacingLeft=4;spacingRight=4;overflow=hidden;rotatable=0;points=[[0,0.5],[1,0.5]];portConstraint=eastwest;" vertex="1" parent="iqWXhcP6Gmm81lYTE9qX-92">
          <mxGeometry y="348" width="340" height="26" as="geometry" />
        </mxCell>
        <mxCell id="kBdst28I5aQ1oTpQg8cU-4" value="+getCidade() void" style="text;align=left;verticalAlign=top;spacingLeft=4;spacingRight=4;overflow=hidden;rotatable=0;points=[[0,0.5],[1,0.5]];portConstraint=eastwest;" vertex="1" parent="iqWXhcP6Gmm81lYTE9qX-92">
          <mxGeometry y="374" width="340" height="26" as="geometry" />
        </mxCell>
        <mxCell id="kBdst28I5aQ1oTpQg8cU-5" value="-setCidade() void" style="text;align=left;verticalAlign=top;spacingLeft=4;spacingRight=4;overflow=hidden;rotatable=0;points=[[0,0.5],[1,0.5]];portConstraint=eastwest;" vertex="1" parent="iqWXhcP6Gmm81lYTE9qX-92">
          <mxGeometry y="400" width="340" height="26" as="geometry" />
        </mxCell>
        <mxCell id="kBdst28I5aQ1oTpQg8cU-6" value="+getFormaPag() void" style="text;align=left;verticalAlign=top;spacingLeft=4;spacingRight=4;overflow=hidden;rotatable=0;points=[[0,0.5],[1,0.5]];portConstraint=eastwest;" vertex="1" parent="iqWXhcP6Gmm81lYTE9qX-92">
          <mxGeometry y="426" width="340" height="26" as="geometry" />
        </mxCell>
        <mxCell id="kBdst28I5aQ1oTpQg8cU-7" value="-setFormaPag() void" style="text;align=left;verticalAlign=top;spacingLeft=4;spacingRight=4;overflow=hidden;rotatable=0;points=[[0,0.5],[1,0.5]];portConstraint=eastwest;" vertex="1" parent="iqWXhcP6Gmm81lYTE9qX-92">
          <mxGeometry y="452" width="340" height="26" as="geometry" />
        </mxCell>
        <mxCell id="kBdst28I5aQ1oTpQg8cU-8" value="-getFormaRec() void" style="text;align=left;verticalAlign=top;spacingLeft=4;spacingRight=4;overflow=hidden;rotatable=0;points=[[0,0.5],[1,0.5]];portConstraint=eastwest;" vertex="1" parent="iqWXhcP6Gmm81lYTE9qX-92">
          <mxGeometry y="478" width="340" height="26" as="geometry" />
        </mxCell>
        <mxCell id="kBdst28I5aQ1oTpQg8cU-9" value="-setFormaReceb() void" style="text;align=left;verticalAlign=top;spacingLeft=4;spacingRight=4;overflow=hidden;rotatable=0;points=[[0,0.5],[1,0.5]];portConstraint=eastwest;" vertex="1" parent="iqWXhcP6Gmm81lYTE9qX-92">
          <mxGeometry y="504" width="340" height="26" as="geometry" />
        </mxCell>
        <mxCell id="kBdst28I5aQ1oTpQg8cU-10" value="+getTel() void" style="text;align=left;verticalAlign=top;spacingLeft=4;spacingRight=4;overflow=hidden;rotatable=0;points=[[0,0.5],[1,0.5]];portConstraint=eastwest;" vertex="1" parent="iqWXhcP6Gmm81lYTE9qX-92">
          <mxGeometry y="530" width="340" height="26" as="geometry" />
        </mxCell>
        <mxCell id="kBdst28I5aQ1oTpQg8cU-11" value="+setTel() void" style="text;align=left;verticalAlign=top;spacingLeft=4;spacingRight=4;overflow=hidden;rotatable=0;points=[[0,0.5],[1,0.5]];portConstraint=eastwest;" vertex="1" parent="iqWXhcP6Gmm81lYTE9qX-92">
          <mxGeometry y="556" width="340" height="26" as="geometry" />
        </mxCell>
        <mxCell id="kBdst28I5aQ1oTpQg8cU-68" style="edgeStyle=orthogonalEdgeStyle;rounded=0;orthogonalLoop=1;jettySize=auto;html=1;entryX=0.5;entryY=0;entryDx=0;entryDy=0;" edge="1" parent="WIyWlLk6GJQsqaUBKTNV-1" source="nwzno8uzd7vZPeXobcwK-21" target="JkuJIoE7SBukqdG8tUZ_-20">
          <mxGeometry relative="1" as="geometry" />
        </mxCell>
        <mxCell id="nwzno8uzd7vZPeXobcwK-21" value="enum Tipos" style="swimlane;fontStyle=0;align=center;verticalAlign=top;childLayout=stackLayout;horizontal=1;startSize=26;horizontalStack=0;resizeParent=1;resizeLast=0;collapsible=1;marginBottom=0;rounded=0;shadow=0;strokeWidth=1;" parent="WIyWlLk6GJQsqaUBKTNV-1" vertex="1">
          <mxGeometry x="782.5" y="-790" width="201" height="266" as="geometry">
            <mxRectangle x="130" y="380" width="160" height="26" as="alternateBounds" />
          </mxGeometry>
        </mxCell>
        <mxCell id="nwzno8uzd7vZPeXobcwK-22" value="JOGOS" style="text;align=left;verticalAlign=top;spacingLeft=4;spacingRight=4;overflow=hidden;rotatable=0;points=[[0,0.5],[1,0.5]];portConstraint=eastwest;" parent="nwzno8uzd7vZPeXobcwK-21" vertex="1">
          <mxGeometry y="26" width="201" height="26" as="geometry" />
        </mxCell>
        <mxCell id="nwzno8uzd7vZPeXobcwK-23" value="CONSOLE&#xa;" style="text;align=left;verticalAlign=top;spacingLeft=4;spacingRight=4;overflow=hidden;rotatable=0;points=[[0,0.5],[1,0.5]];portConstraint=eastwest;" parent="nwzno8uzd7vZPeXobcwK-21" vertex="1">
          <mxGeometry y="52" width="201" height="26" as="geometry" />
        </mxCell>
        <mxCell id="nwzno8uzd7vZPeXobcwK-24" value="COLECIONAVEL" style="text;align=left;verticalAlign=top;spacingLeft=4;spacingRight=4;overflow=hidden;rotatable=0;points=[[0,0.5],[1,0.5]];portConstraint=eastwest;" parent="nwzno8uzd7vZPeXobcwK-21" vertex="1">
          <mxGeometry y="78" width="201" height="26" as="geometry" />
        </mxCell>
        <mxCell id="nwzno8uzd7vZPeXobcwK-28" value="-tipo; int" style="text;align=left;verticalAlign=top;spacingLeft=4;spacingRight=4;overflow=hidden;rotatable=0;points=[[0,0.5],[1,0.5]];portConstraint=eastwest;" parent="nwzno8uzd7vZPeXobcwK-21" vertex="1">
          <mxGeometry y="104" width="201" height="26" as="geometry" />
        </mxCell>
        <mxCell id="nwzno8uzd7vZPeXobcwK-29" value="-String; nome" style="text;align=left;verticalAlign=top;spacingLeft=4;spacingRight=4;overflow=hidden;rotatable=0;points=[[0,0.5],[1,0.5]];portConstraint=eastwest;" parent="nwzno8uzd7vZPeXobcwK-21" vertex="1">
          <mxGeometry y="130" width="201" height="26" as="geometry" />
        </mxCell>
        <mxCell id="nwzno8uzd7vZPeXobcwK-25" value="" style="line;html=1;strokeWidth=1;align=left;verticalAlign=middle;spacingTop=-1;spacingLeft=3;spacingRight=3;rotatable=0;labelPosition=right;points=[];portConstraint=eastwest;" parent="nwzno8uzd7vZPeXobcwK-21" vertex="1">
          <mxGeometry y="156" width="201" height="16" as="geometry" />
        </mxCell>
        <mxCell id="nwzno8uzd7vZPeXobcwK-26" value="Tipos(int tipo, String nome);" style="text;align=left;verticalAlign=top;spacingLeft=4;spacingRight=4;overflow=hidden;rotatable=0;points=[[0,0.5],[1,0.5]];portConstraint=eastwest;" parent="nwzno8uzd7vZPeXobcwK-21" vertex="1">
          <mxGeometry y="172" width="201" height="26" as="geometry" />
        </mxCell>
        <mxCell id="nwzno8uzd7vZPeXobcwK-59" style="edgeStyle=orthogonalEdgeStyle;rounded=0;orthogonalLoop=1;jettySize=auto;html=1;entryX=0.5;entryY=0;entryDx=0;entryDy=0;" parent="WIyWlLk6GJQsqaUBKTNV-1" source="nwzno8uzd7vZPeXobcwK-43" edge="1" target="kBdst28I5aQ1oTpQg8cU-24">
          <mxGeometry relative="1" as="geometry">
            <mxPoint x="430" y="-280" as="targetPoint" />
          </mxGeometry>
        </mxCell>
        <mxCell id="nwzno8uzd7vZPeXobcwK-43" value="EmailRepetidoException" style="swimlane;fontStyle=0;align=center;verticalAlign=top;childLayout=stackLayout;horizontal=1;startSize=26;horizontalStack=0;resizeParent=1;resizeLast=0;collapsible=1;marginBottom=0;rounded=0;shadow=0;strokeWidth=1;fillColor=#f8cecc;strokeColor=#b85450;" parent="WIyWlLk6GJQsqaUBKTNV-1" vertex="1">
          <mxGeometry x="-145" y="-770" width="350" height="340" as="geometry">
            <mxRectangle x="550" y="140" width="160" height="26" as="alternateBounds" />
          </mxGeometry>
        </mxCell>
        <mxCell id="nwzno8uzd7vZPeXobcwK-56" value="extends Exception" style="text;align=left;verticalAlign=top;spacingLeft=4;spacingRight=4;overflow=hidden;rotatable=0;points=[[0,0.5],[1,0.5]];portConstraint=eastwest;" parent="nwzno8uzd7vZPeXobcwK-43" vertex="1">
          <mxGeometry y="26" width="350" height="26" as="geometry" />
        </mxCell>
        <mxCell id="nwzno8uzd7vZPeXobcwK-53" value="" style="line;html=1;strokeWidth=1;align=left;verticalAlign=middle;spacingTop=-1;spacingLeft=3;spacingRight=3;rotatable=0;labelPosition=right;points=[];portConstraint=eastwest;" parent="nwzno8uzd7vZPeXobcwK-43" vertex="1">
          <mxGeometry y="52" width="350" height="36" as="geometry" />
        </mxCell>
        <mxCell id="nwzno8uzd7vZPeXobcwK-55" value="+ EmailRepetidoException(String mensagem)" style="text;align=left;verticalAlign=top;spacingLeft=4;spacingRight=4;overflow=hidden;rotatable=0;points=[[0,0.5],[1,0.5]];portConstraint=eastwest;" parent="nwzno8uzd7vZPeXobcwK-43" vertex="1">
          <mxGeometry y="88" width="350" height="26" as="geometry" />
        </mxCell>
        <mxCell id="kBdst28I5aQ1oTpQg8cU-70" style="edgeStyle=orthogonalEdgeStyle;rounded=0;orthogonalLoop=1;jettySize=auto;html=1;entryX=0;entryY=0.5;entryDx=0;entryDy=0;" edge="1" parent="WIyWlLk6GJQsqaUBKTNV-1" source="kBdst28I5aQ1oTpQg8cU-24" target="iqWXhcP6Gmm81lYTE9qX-86">
          <mxGeometry relative="1" as="geometry">
            <Array as="points">
              <mxPoint x="190" y="-240" />
              <mxPoint x="190" y="-240" />
            </Array>
          </mxGeometry>
        </mxCell>
        <mxCell id="kBdst28I5aQ1oTpQg8cU-24" value="ClienteManipulacao" style="swimlane;fontStyle=0;align=center;verticalAlign=top;childLayout=stackLayout;horizontal=1;startSize=26;horizontalStack=0;resizeParent=1;resizeLast=0;collapsible=1;marginBottom=0;rounded=0;shadow=0;strokeWidth=1;" vertex="1" parent="WIyWlLk6GJQsqaUBKTNV-1">
          <mxGeometry x="-120" y="-390" width="300" height="270" as="geometry">
            <mxRectangle x="550" y="140" width="160" height="26" as="alternateBounds" />
          </mxGeometry>
        </mxCell>
        <mxCell id="kBdst28I5aQ1oTpQg8cU-25" value="-Login[] login()" style="text;align=left;verticalAlign=top;spacingLeft=4;spacingRight=4;overflow=hidden;rotatable=0;points=[[0,0.5],[1,0.5]];portConstraint=eastwest;rounded=0;shadow=0;html=0;" vertex="1" parent="kBdst28I5aQ1oTpQg8cU-24">
          <mxGeometry y="26" width="300" height="26" as="geometry" />
        </mxCell>
        <mxCell id="kBdst28I5aQ1oTpQg8cU-26" value="+ LoginManipulacao() { this.loginManip;" style="text;align=left;verticalAlign=top;spacingLeft=4;spacingRight=4;overflow=hidden;rotatable=0;points=[[0,0.5],[1,0.5]];portConstraint=eastwest;rounded=0;shadow=0;html=0;" vertex="1" parent="kBdst28I5aQ1oTpQg8cU-24">
          <mxGeometry y="52" width="300" height="26" as="geometry" />
        </mxCell>
        <mxCell id="kBdst28I5aQ1oTpQg8cU-27" value="" style="line;html=1;strokeWidth=1;align=left;verticalAlign=middle;spacingTop=-1;spacingLeft=3;spacingRight=3;rotatable=0;labelPosition=right;points=[];portConstraint=eastwest;" vertex="1" parent="kBdst28I5aQ1oTpQg8cU-24">
          <mxGeometry y="78" width="300" height="32" as="geometry" />
        </mxCell>
        <mxCell id="kBdst28I5aQ1oTpQg8cU-28" value="+ adicionarLogin(); void" style="text;align=left;verticalAlign=top;spacingLeft=4;spacingRight=4;overflow=hidden;rotatable=0;points=[[0,0.5],[1,0.5]];portConstraint=eastwest;" vertex="1" parent="kBdst28I5aQ1oTpQg8cU-24">
          <mxGeometry y="110" width="300" height="26" as="geometry" />
        </mxCell>
        <mxCell id="kBdst28I5aQ1oTpQg8cU-29" value="+ removerLogin(Integer index)(); integer" style="text;align=left;verticalAlign=top;spacingLeft=4;spacingRight=4;overflow=hidden;rotatable=0;points=[[0,0.5],[1,0.5]];portConstraint=eastwest;" vertex="1" parent="kBdst28I5aQ1oTpQg8cU-24">
          <mxGeometry y="136" width="300" height="26" as="geometry" />
        </mxCell>
        <mxCell id="kBdst28I5aQ1oTpQg8cU-30" value="+ editarLogin(); Login" style="text;align=left;verticalAlign=top;spacingLeft=4;spacingRight=4;overflow=hidden;rotatable=0;points=[[0,0.5],[1,0.5]];portConstraint=eastwest;" vertex="1" parent="kBdst28I5aQ1oTpQg8cU-24">
          <mxGeometry y="162" width="300" height="26" as="geometry" />
        </mxCell>
        <mxCell id="kBdst28I5aQ1oTpQg8cU-31" value="+ listarLogin(); void" style="text;align=left;verticalAlign=top;spacingLeft=4;spacingRight=4;overflow=hidden;rotatable=0;points=[[0,0.5],[1,0.5]];portConstraint=eastwest;" vertex="1" parent="kBdst28I5aQ1oTpQg8cU-24">
          <mxGeometry y="188" width="300" height="26" as="geometry" />
        </mxCell>
        <mxCell id="kBdst28I5aQ1oTpQg8cU-74" style="edgeStyle=orthogonalEdgeStyle;rounded=0;orthogonalLoop=1;jettySize=auto;html=1;dashed=1;" edge="1" parent="WIyWlLk6GJQsqaUBKTNV-1" source="kBdst28I5aQ1oTpQg8cU-33">
          <mxGeometry relative="1" as="geometry">
            <mxPoint x="1020" y="134" as="targetPoint" />
            <Array as="points">
              <mxPoint x="1080" y="134" />
              <mxPoint x="1080" y="134" />
            </Array>
          </mxGeometry>
        </mxCell>
        <mxCell id="kBdst28I5aQ1oTpQg8cU-33" value="CarrinhoManipulacao" style="swimlane;fontStyle=0;align=center;verticalAlign=top;childLayout=stackLayout;horizontal=1;startSize=26;horizontalStack=0;resizeParent=1;resizeLast=0;collapsible=1;marginBottom=0;rounded=0;shadow=0;strokeWidth=1;" vertex="1" parent="WIyWlLk6GJQsqaUBKTNV-1">
          <mxGeometry x="1140" width="300" height="270" as="geometry">
            <mxRectangle x="550" y="140" width="160" height="26" as="alternateBounds" />
          </mxGeometry>
        </mxCell>
        <mxCell id="kBdst28I5aQ1oTpQg8cU-34" value="- Carrinho[] carrinho[]" style="text;align=left;verticalAlign=top;spacingLeft=4;spacingRight=4;overflow=hidden;rotatable=0;points=[[0,0.5],[1,0.5]];portConstraint=eastwest;rounded=0;shadow=0;html=0;" vertex="1" parent="kBdst28I5aQ1oTpQg8cU-33">
          <mxGeometry y="26" width="300" height="26" as="geometry" />
        </mxCell>
        <mxCell id="kBdst28I5aQ1oTpQg8cU-35" value="+ CarrinhoManipulacao() { this.carrinhoManip" style="text;align=left;verticalAlign=top;spacingLeft=4;spacingRight=4;overflow=hidden;rotatable=0;points=[[0,0.5],[1,0.5]];portConstraint=eastwest;rounded=0;shadow=0;html=0;" vertex="1" parent="kBdst28I5aQ1oTpQg8cU-33">
          <mxGeometry y="52" width="300" height="26" as="geometry" />
        </mxCell>
        <mxCell id="kBdst28I5aQ1oTpQg8cU-36" value="" style="line;html=1;strokeWidth=1;align=left;verticalAlign=middle;spacingTop=-1;spacingLeft=3;spacingRight=3;rotatable=0;labelPosition=right;points=[];portConstraint=eastwest;" vertex="1" parent="kBdst28I5aQ1oTpQg8cU-33">
          <mxGeometry y="78" width="300" height="32" as="geometry" />
        </mxCell>
        <mxCell id="kBdst28I5aQ1oTpQg8cU-37" value="+ adicionarCarrinho(); void" style="text;align=left;verticalAlign=top;spacingLeft=4;spacingRight=4;overflow=hidden;rotatable=0;points=[[0,0.5],[1,0.5]];portConstraint=eastwest;" vertex="1" parent="kBdst28I5aQ1oTpQg8cU-33">
          <mxGeometry y="110" width="300" height="26" as="geometry" />
        </mxCell>
        <mxCell id="kBdst28I5aQ1oTpQg8cU-38" value="+ removerCarrinhoPorIndice(Integer index)(); integer" style="text;align=left;verticalAlign=top;spacingLeft=4;spacingRight=4;overflow=hidden;rotatable=0;points=[[0,0.5],[1,0.5]];portConstraint=eastwest;" vertex="1" parent="kBdst28I5aQ1oTpQg8cU-33">
          <mxGeometry y="136" width="300" height="26" as="geometry" />
        </mxCell>
        <mxCell id="kBdst28I5aQ1oTpQg8cU-39" value="+ editarCarrinho(); Carrinho" style="text;align=left;verticalAlign=top;spacingLeft=4;spacingRight=4;overflow=hidden;rotatable=0;points=[[0,0.5],[1,0.5]];portConstraint=eastwest;" vertex="1" parent="kBdst28I5aQ1oTpQg8cU-33">
          <mxGeometry y="162" width="300" height="26" as="geometry" />
        </mxCell>
        <mxCell id="kBdst28I5aQ1oTpQg8cU-40" value="+ listarCarrinho(); void" style="text;align=left;verticalAlign=top;spacingLeft=4;spacingRight=4;overflow=hidden;rotatable=0;points=[[0,0.5],[1,0.5]];portConstraint=eastwest;" vertex="1" parent="kBdst28I5aQ1oTpQg8cU-33">
          <mxGeometry y="188" width="300" height="26" as="geometry" />
        </mxCell>
        <mxCell id="kBdst28I5aQ1oTpQg8cU-69" style="edgeStyle=orthogonalEdgeStyle;rounded=0;orthogonalLoop=1;jettySize=auto;html=1;entryX=1;entryY=0.5;entryDx=0;entryDy=0;" edge="1" parent="WIyWlLk6GJQsqaUBKTNV-1" source="iqWXhcP6Gmm81lYTE9qX-36" target="JkuJIoE7SBukqdG8tUZ_-24">
          <mxGeometry relative="1" as="geometry" />
        </mxCell>
        <mxCell id="iqWXhcP6Gmm81lYTE9qX-36" value="ProdutoManipulacao" style="swimlane;fontStyle=0;align=center;verticalAlign=top;childLayout=stackLayout;horizontal=1;startSize=26;horizontalStack=0;resizeParent=1;resizeLast=0;collapsible=1;marginBottom=0;rounded=0;shadow=0;strokeWidth=1;" parent="WIyWlLk6GJQsqaUBKTNV-1" vertex="1">
          <mxGeometry x="1130" y="-474" width="300" height="342" as="geometry">
            <mxRectangle x="550" y="140" width="160" height="26" as="alternateBounds" />
          </mxGeometry>
        </mxCell>
        <mxCell id="iqWXhcP6Gmm81lYTE9qX-44" value="- Produto[] produto[]" style="text;align=left;verticalAlign=top;spacingLeft=4;spacingRight=4;overflow=hidden;rotatable=0;points=[[0,0.5],[1,0.5]];portConstraint=eastwest;rounded=0;shadow=0;html=0;" parent="iqWXhcP6Gmm81lYTE9qX-36" vertex="1">
          <mxGeometry y="26" width="300" height="26" as="geometry" />
        </mxCell>
        <mxCell id="iqWXhcP6Gmm81lYTE9qX-45" value="+ ProdutoManipulacao() { this.listaProduto;" style="text;align=left;verticalAlign=top;spacingLeft=4;spacingRight=4;overflow=hidden;rotatable=0;points=[[0,0.5],[1,0.5]];portConstraint=eastwest;rounded=0;shadow=0;html=0;" parent="iqWXhcP6Gmm81lYTE9qX-36" vertex="1">
          <mxGeometry y="52" width="300" height="26" as="geometry" />
        </mxCell>
        <mxCell id="nwzno8uzd7vZPeXobcwK-20" value="- listaProduto[] " style="text;align=left;verticalAlign=top;spacingLeft=4;spacingRight=4;overflow=hidden;rotatable=0;points=[[0,0.5],[1,0.5]];portConstraint=eastwest;" parent="iqWXhcP6Gmm81lYTE9qX-36" vertex="1">
          <mxGeometry y="78" width="300" height="26" as="geometry" />
        </mxCell>
        <mxCell id="nwzno8uzd7vZPeXobcwK-10" value="+ imprimirProdutos(): void" style="text;align=left;verticalAlign=top;spacingLeft=4;spacingRight=4;overflow=hidden;rotatable=0;points=[[0,0.5],[1,0.5]];portConstraint=eastwest;" parent="iqWXhcP6Gmm81lYTE9qX-36" vertex="1">
          <mxGeometry y="104" width="300" height="26" as="geometry" />
        </mxCell>
        <mxCell id="iqWXhcP6Gmm81lYTE9qX-40" value="" style="line;html=1;strokeWidth=1;align=left;verticalAlign=middle;spacingTop=-1;spacingLeft=3;spacingRight=3;rotatable=0;labelPosition=right;points=[];portConstraint=eastwest;" parent="iqWXhcP6Gmm81lYTE9qX-36" vertex="1">
          <mxGeometry y="130" width="300" height="34" as="geometry" />
        </mxCell>
        <mxCell id="iqWXhcP6Gmm81lYTE9qX-46" value="+ adicionarProduto(); void" style="text;align=left;verticalAlign=top;spacingLeft=4;spacingRight=4;overflow=hidden;rotatable=0;points=[[0,0.5],[1,0.5]];portConstraint=eastwest;" parent="iqWXhcP6Gmm81lYTE9qX-36" vertex="1">
          <mxGeometry y="164" width="300" height="26" as="geometry" />
        </mxCell>
        <mxCell id="iqWXhcP6Gmm81lYTE9qX-47" value="+ removerProdutoPorIndice(Integer index)(); integer" style="text;align=left;verticalAlign=top;spacingLeft=4;spacingRight=4;overflow=hidden;rotatable=0;points=[[0,0.5],[1,0.5]];portConstraint=eastwest;" parent="iqWXhcP6Gmm81lYTE9qX-36" vertex="1">
          <mxGeometry y="190" width="300" height="26" as="geometry" />
        </mxCell>
        <mxCell id="iqWXhcP6Gmm81lYTE9qX-48" value="+ editarProduto(); Balcao" style="text;align=left;verticalAlign=top;spacingLeft=4;spacingRight=4;overflow=hidden;rotatable=0;points=[[0,0.5],[1,0.5]];portConstraint=eastwest;" parent="iqWXhcP6Gmm81lYTE9qX-36" vertex="1">
          <mxGeometry y="216" width="300" height="26" as="geometry" />
        </mxCell>
        <mxCell id="iqWXhcP6Gmm81lYTE9qX-49" value="+ listarProduto(); void" style="text;align=left;verticalAlign=top;spacingLeft=4;spacingRight=4;overflow=hidden;rotatable=0;points=[[0,0.5],[1,0.5]];portConstraint=eastwest;" parent="iqWXhcP6Gmm81lYTE9qX-36" vertex="1">
          <mxGeometry y="242" width="300" height="26" as="geometry" />
        </mxCell>
        <mxCell id="kBdst28I5aQ1oTpQg8cU-49" style="edgeStyle=orthogonalEdgeStyle;rounded=0;orthogonalLoop=1;jettySize=auto;html=1;entryX=0;entryY=0.5;entryDx=0;entryDy=0;" edge="1" parent="WIyWlLk6GJQsqaUBKTNV-1" source="kBdst28I5aQ1oTpQg8cU-46" target="JkuJIoE7SBukqdG8tUZ_-24">
          <mxGeometry relative="1" as="geometry" />
        </mxCell>
        <mxCell id="kBdst28I5aQ1oTpQg8cU-57" style="edgeStyle=orthogonalEdgeStyle;rounded=0;orthogonalLoop=1;jettySize=auto;html=1;entryX=0.5;entryY=1;entryDx=0;entryDy=0;" edge="1" parent="WIyWlLk6GJQsqaUBKTNV-1" source="kBdst28I5aQ1oTpQg8cU-50" target="JkuJIoE7SBukqdG8tUZ_-12">
          <mxGeometry relative="1" as="geometry" />
        </mxCell>
        <mxCell id="kBdst28I5aQ1oTpQg8cU-50" value="Cupom" style="swimlane;fontStyle=0;align=center;verticalAlign=top;childLayout=stackLayout;horizontal=1;startSize=26;horizontalStack=0;resizeParent=1;resizeLast=0;collapsible=1;marginBottom=0;rounded=0;shadow=0;strokeWidth=1;" vertex="1" parent="WIyWlLk6GJQsqaUBKTNV-1">
          <mxGeometry x="742.5" y="520" width="281" height="302" as="geometry">
            <mxRectangle x="550" y="140" width="160" height="26" as="alternateBounds" />
          </mxGeometry>
        </mxCell>
        <mxCell id="kBdst28I5aQ1oTpQg8cU-51" value="+ desconto; double" style="text;align=left;verticalAlign=top;spacingLeft=4;spacingRight=4;overflow=hidden;rotatable=0;points=[[0,0.5],[1,0.5]];portConstraint=eastwest;" vertex="1" parent="kBdst28I5aQ1oTpQg8cU-50">
          <mxGeometry y="26" width="281" height="26" as="geometry" />
        </mxCell>
        <mxCell id="kBdst28I5aQ1oTpQg8cU-75" value="+ validade; boolean" style="text;align=left;verticalAlign=top;spacingLeft=4;spacingRight=4;overflow=hidden;rotatable=0;points=[[0,0.5],[1,0.5]];portConstraint=eastwest;" vertex="1" parent="kBdst28I5aQ1oTpQg8cU-50">
          <mxGeometry y="52" width="281" height="26" as="geometry" />
        </mxCell>
        <mxCell id="kBdst28I5aQ1oTpQg8cU-52" value="" style="line;html=1;strokeWidth=1;align=left;verticalAlign=middle;spacingTop=-1;spacingLeft=3;spacingRight=3;rotatable=0;labelPosition=right;points=[];portConstraint=eastwest;" vertex="1" parent="kBdst28I5aQ1oTpQg8cU-50">
          <mxGeometry y="78" width="281" height="26" as="geometry" />
        </mxCell>
        <mxCell id="kBdst28I5aQ1oTpQg8cU-55" value="+ imprimirCupom(): void" style="text;align=left;verticalAlign=top;spacingLeft=4;spacingRight=4;overflow=hidden;rotatable=0;points=[[0,0.5],[1,0.5]];portConstraint=eastwest;" vertex="1" parent="kBdst28I5aQ1oTpQg8cU-50">
          <mxGeometry y="104" width="281" height="26" as="geometry" />
        </mxCell>
        <mxCell id="kBdst28I5aQ1oTpQg8cU-56" value="+ Cupom() cupom();" style="text;align=left;verticalAlign=top;spacingLeft=4;spacingRight=4;overflow=hidden;rotatable=0;points=[[0,0.5],[1,0.5]];portConstraint=eastwest;" vertex="1" parent="kBdst28I5aQ1oTpQg8cU-50">
          <mxGeometry y="130" width="281" height="26" as="geometry" />
        </mxCell>
        <mxCell id="kBdst28I5aQ1oTpQg8cU-67" style="edgeStyle=orthogonalEdgeStyle;rounded=0;orthogonalLoop=1;jettySize=auto;html=1;" edge="1" parent="WIyWlLk6GJQsqaUBKTNV-1" source="kBdst28I5aQ1oTpQg8cU-59" target="kBdst28I5aQ1oTpQg8cU-55">
          <mxGeometry relative="1" as="geometry" />
        </mxCell>
        <mxCell id="kBdst28I5aQ1oTpQg8cU-59" value="CupomManipulacao" style="swimlane;fontStyle=0;align=center;verticalAlign=top;childLayout=stackLayout;horizontal=1;startSize=26;horizontalStack=0;resizeParent=1;resizeLast=0;collapsible=1;marginBottom=0;rounded=0;shadow=0;strokeWidth=1;" vertex="1" parent="WIyWlLk6GJQsqaUBKTNV-1">
          <mxGeometry x="1160" y="538" width="300" height="270" as="geometry">
            <mxRectangle x="550" y="140" width="160" height="26" as="alternateBounds" />
          </mxGeometry>
        </mxCell>
        <mxCell id="kBdst28I5aQ1oTpQg8cU-60" value="- Cupom[] cupom[]" style="text;align=left;verticalAlign=top;spacingLeft=4;spacingRight=4;overflow=hidden;rotatable=0;points=[[0,0.5],[1,0.5]];portConstraint=eastwest;rounded=0;shadow=0;html=0;" vertex="1" parent="kBdst28I5aQ1oTpQg8cU-59">
          <mxGeometry y="26" width="300" height="26" as="geometry" />
        </mxCell>
        <mxCell id="kBdst28I5aQ1oTpQg8cU-61" value="+ Cupom() { this.cupomManip" style="text;align=left;verticalAlign=top;spacingLeft=4;spacingRight=4;overflow=hidden;rotatable=0;points=[[0,0.5],[1,0.5]];portConstraint=eastwest;rounded=0;shadow=0;html=0;" vertex="1" parent="kBdst28I5aQ1oTpQg8cU-59">
          <mxGeometry y="52" width="300" height="26" as="geometry" />
        </mxCell>
        <mxCell id="kBdst28I5aQ1oTpQg8cU-62" value="" style="line;html=1;strokeWidth=1;align=left;verticalAlign=middle;spacingTop=-1;spacingLeft=3;spacingRight=3;rotatable=0;labelPosition=right;points=[];portConstraint=eastwest;" vertex="1" parent="kBdst28I5aQ1oTpQg8cU-59">
          <mxGeometry y="78" width="300" height="32" as="geometry" />
        </mxCell>
        <mxCell id="kBdst28I5aQ1oTpQg8cU-63" value="+ adicionarCupom(): void" style="text;align=left;verticalAlign=top;spacingLeft=4;spacingRight=4;overflow=hidden;rotatable=0;points=[[0,0.5],[1,0.5]];portConstraint=eastwest;" vertex="1" parent="kBdst28I5aQ1oTpQg8cU-59">
          <mxGeometry y="110" width="300" height="26" as="geometry" />
        </mxCell>
        <mxCell id="kBdst28I5aQ1oTpQg8cU-64" value="+ removerCupomPorIndice(Integer index) (): integer" style="text;align=left;verticalAlign=top;spacingLeft=4;spacingRight=4;overflow=hidden;rotatable=0;points=[[0,0.5],[1,0.5]];portConstraint=eastwest;" vertex="1" parent="kBdst28I5aQ1oTpQg8cU-59">
          <mxGeometry y="136" width="300" height="26" as="geometry" />
        </mxCell>
        <mxCell id="kBdst28I5aQ1oTpQg8cU-65" value="+ editarCupom(): Cupom" style="text;align=left;verticalAlign=top;spacingLeft=4;spacingRight=4;overflow=hidden;rotatable=0;points=[[0,0.5],[1,0.5]];portConstraint=eastwest;" vertex="1" parent="kBdst28I5aQ1oTpQg8cU-59">
          <mxGeometry y="162" width="300" height="26" as="geometry" />
        </mxCell>
        <mxCell id="kBdst28I5aQ1oTpQg8cU-66" value="+ listarCupom(): void" style="text;align=left;verticalAlign=top;spacingLeft=4;spacingRight=4;overflow=hidden;rotatable=0;points=[[0,0.5],[1,0.5]];portConstraint=eastwest;" vertex="1" parent="kBdst28I5aQ1oTpQg8cU-59">
          <mxGeometry y="188" width="300" height="26" as="geometry" />
        </mxCell>
      </root>
    </mxGraphModel>
  </diagram>
</mxfile>
